<?xml version="1.0" encoding="utf-8"?>
<!-- Generator: Adobe Illustrator 21.0.0, SVG Export Plug-In . SVG Version: 6.00 Build 0)  -->
<svg version="1.1" id="Layer_1" xmlns="http://www.w3.org/2000/svg" xmlns:xlink="http://www.w3.org/1999/xlink" x="0px" y="0px"
	 viewBox="0 0 100 100" style="enable-background:new 0 0 100 100;" xml:space="preserve">
<style type="text/css">
	.st0{clip-path:url(#SVGID_2_);}
</style>
<g>
	<g>
		<defs>
			<rect id="SVGID_1_" x="25.7" y="17.8" width="48.9" height="64.8"/>
		</defs>
		<clipPath id="SVGID_2_">
			<use xlink:href="#SVGID_1_"  style="overflow:visible;"/>
		</clipPath>
		<path class="st0" d="M50,81.8c-1,0-1.9-0.5-2.4-1.3L31.7,58.2c-1.5-2-3-4.2-4.1-6.7c-0.6-1.5-1.1-3-1.4-4.6
			c-0.3-1.6-0.5-3.2-0.5-4.8c0-6.5,2.5-12.6,7.1-17.2c2.3-2.3,4.9-4,7.9-5.3c5.9-2.4,12.6-2.4,18.5,0c3,1.2,5.6,3,7.9,5.3
			c4.6,4.6,7.1,10.7,7.1,17.2c0,1.6-0.2,3.2-0.5,4.8c-0.3,1.6-0.8,3.1-1.4,4.6c-1.1,2.6-2.6,4.7-4.1,6.7c-0.2,0.2-0.3,0.4-0.7,1
			L52.4,80.5C51.9,81.3,51,81.8,50,81.8L50,81.8z M50,19.9c-2.9,0-5.8,0.6-8.5,1.7c-2.7,1.1-5.1,2.7-7.2,4.8
			c-4.2,4.2-6.5,9.8-6.5,15.7c0,1.5,0.1,2.9,0.4,4.4c0.3,1.4,0.7,2.9,1.3,4.2c1,2.3,2.4,4.3,3.8,6.3l0.7,1l15.1,21.3
			c0.3,0.5,1.1,0.5,1.4,0l15.1-21.3c0.4-0.6,0.5-0.8,0.7-1c1.5-2.1,2.9-4,3.8-6.3c0.6-1.3,1-2.8,1.3-4.2c0.3-1.5,0.4-2.9,0.4-4.4
			c0-5.9-2.3-11.5-6.5-15.7c-2.1-2.1-4.5-3.7-7.2-4.8C55.8,20.5,52.9,19.9,50,19.9L50,19.9z M50,56.6c-8.1,0-14.6-6.5-14.6-14.6
			c0-8,6.5-14.6,14.6-14.6c8,0,14.6,6.5,14.6,14.6C64.6,50.1,58,56.6,50,56.6L50,56.6z M50,29.6c-6.9,0-12.5,5.6-12.5,12.5
			c0,6.9,5.6,12.5,12.5,12.5c6.9,0,12.5-5.6,12.5-12.5C62.5,35.2,56.9,29.6,50,29.6L50,29.6z M50,29.6"/>
	</g>
</g>
<path d="M50.2,100C22.7,100,0.3,77.6,0.3,50.2S22.7,0.3,50.2,0.3c27.5,0,49.8,22.4,49.8,49.8S77.6,100,50.2,100z M50.2,2.5
	C23.9,2.5,2.5,23.9,2.5,50.2c0,26.3,21.4,47.6,47.6,47.6s47.6-21.4,47.6-47.6C97.8,23.9,76.4,2.5,50.2,2.5z"/>
</svg>
