<?xml version="1.0" encoding="utf-8"?>
<!-- Generator: Adobe Illustrator 21.0.0, SVG Export Plug-In . SVG Version: 6.00 Build 0)  -->
<svg version="1.1" id="Layer_1" xmlns="http://www.w3.org/2000/svg" xmlns:xlink="http://www.w3.org/1999/xlink" x="0px" y="0px"
	 viewBox="0 0 100 100" style="enable-background:new 0 0 100 100;" xml:space="preserve">
<path d="M42,80.6h12.1c1,0,1.9-0.8,1.9-1.9V51.6h6.3c1,0,1.8-0.7,1.9-1.7l1.1-10.2c0.1-0.5-0.1-1.1-0.5-1.4
	c-0.4-0.4-0.9-0.6-1.4-0.6H56v-4.2c0-0.9,0.3-0.9,0.7-0.9h6.5c1,0,1.9-0.8,1.9-1.9v-9.9c0-1-0.8-1.9-1.9-1.9l-8.9,0
	c-6.3,0-9.6,2.8-11.3,5.1c-2.4,3.2-2.7,7-2.7,9v4.8h-3.9c-1,0-1.9,0.8-1.9,1.9v10.2c0,1,0.8,1.9,1.9,1.9h3.9v27.1
	C40.2,79.8,41,80.6,42,80.6L42,80.6z M38.2,47.8v-6.5H42c1,0,1.9-0.8,1.9-1.9v-6.6c0-1.2,0.2-4.3,2-6.8c1.7-2.4,4.5-3.5,8.3-3.5
	l7.1,0v6.2h-4.6c-2.2,0-4.4,1.4-4.4,4.7v6c0,1,0.8,1.9,1.9,1.9h7.1l-0.7,6.5h-6.4c-1,0-1.9,0.8-1.9,1.9v27.1h-8.3V49.7
	c0-1-0.8-1.9-1.9-1.9H38.2z M38.2,47.8"/>
<path d="M84.7,14.8C75.4,5.5,63,0.3,49.8,0.3S24.2,5.5,14.9,14.8C5.6,24.1,0.4,36.5,0.4,49.7c0,13.2,5.1,25.6,14.5,34.9
	c9.3,9.3,21.7,14.5,34.9,14.5c13.2,0,25.6-5.1,34.9-14.5c9.3-9.3,14.5-21.7,14.5-34.9C99.2,36.5,94,24.1,84.7,14.8L84.7,14.8z
	 M82.5,82.4C73.8,91.2,62.2,96,49.8,96c-12.4,0-24-4.8-32.7-13.6C8.3,73.7,3.5,62.1,3.5,49.7c0-12.4,4.8-24,13.6-32.7
	S37.4,3.4,49.8,3.4c12.4,0,24,4.8,32.7,13.6c8.7,8.7,13.6,20.4,13.6,32.7C96.1,62.1,91.3,73.7,82.5,82.4L82.5,82.4z M82.5,82.4"/>
</svg>
