<?xml version="1.0" encoding="utf-8"?>
<!-- Generator: Adobe Illustrator 21.0.0, SVG Export Plug-In . SVG Version: 6.00 Build 0)  -->
<svg version="1.1" id="Layer_1" xmlns="http://www.w3.org/2000/svg" xmlns:xlink="http://www.w3.org/1999/xlink" x="0px" y="0px"
	 viewBox="0 0 100 100" style="enable-background:new 0 0 100 100;" xml:space="preserve">
<path d="M85.4,14.6C75.9,5.2,63.4,0,50.1,0S24.2,5.2,14.7,14.6c-9.4,9.4-14.6,22-14.6,35.3c0,13.3,5.2,25.9,14.6,35.3
	c9.4,9.4,22,14.6,35.3,14.6c13.3,0,25.9-5.2,35.3-14.6c9.4-9.4,14.6-22,14.6-35.3C100,36.6,94.8,24.1,85.4,14.6L85.4,14.6z
	 M83.2,83.1c-8.8,8.8-20.6,13.7-33.1,13.7c-12.5,0-24.3-4.9-33.1-13.7C8.1,74.2,3.2,62.5,3.2,49.9c0-12.5,4.9-24.3,13.7-33.1
	C25.8,8,37.5,3.1,50.1,3.1c12.5,0,24.3,4.9,33.1,13.7c8.8,8.8,13.7,20.6,13.7,33.1C96.9,62.5,92,74.2,83.2,83.1L83.2,83.1z
	 M83.2,83.1"/>
<path d="M63.2,24.9H37c-6.6,0-12,5.4-12,12v26.1c0,6.6,5.4,12,12,12h26.1c6.6,0,12-5.4,12-12V36.9C75.2,30.3,69.8,24.9,63.2,24.9
	L63.2,24.9z M72,63.1c0,4.9-4,8.9-8.9,8.9H37c-4.9,0-8.9-4-8.9-8.9V36.9c0-4.9,4-8.9,8.9-8.9h26.1c4.9,0,8.9,4,8.9,8.9V63.1z
	 M72,63.1"/>
<path d="M64.1,34.1c-1.1,0-1.9,0.9-1.9,1.9c0,1.1,0.9,1.9,1.9,1.9c1.1,0,1.9-0.9,1.9-1.9C66.1,34.9,65.2,34.1,64.1,34.1L64.1,34.1z
	 M64.1,34.1"/>
<path d="M50.1,37.7c-6.8,0-12.3,5.5-12.3,12.3c0,6.8,5.5,12.3,12.3,12.3S62.4,56.8,62.4,50C62.4,43.2,56.9,37.7,50.1,37.7L50.1,37.7
	z M50.1,59.1c-5,0-9.1-4.1-9.1-9.1c0-5,4.1-9.1,9.1-9.1c5,0,9.1,4.1,9.1,9.1C59.2,55,55.1,59.1,50.1,59.1L50.1,59.1z M50.1,59.1"/>
</svg>
