<?xml version="1.0" encoding="utf-8"?>
<!-- Generator: Adobe Illustrator 21.0.0, SVG Export Plug-In . SVG Version: 6.00 Build 0)  -->
<svg version="1.1" id="Layer_1" xmlns="http://www.w3.org/2000/svg" xmlns:xlink="http://www.w3.org/1999/xlink" x="0px" y="0px"
	 viewBox="0 0 100 100" style="enable-background:new 0 0 100 100;" xml:space="preserve">
<style type="text/css">
	.st0{fill:#FEDA00;}
</style>
<g>
	<path class="st0" d="M50,99.8C22.6,99.8,0.3,77.4,0.3,50S22.6,0.2,50,0.2S99.8,22.6,99.8,50S77.4,99.8,50,99.8z M50,4.7
		C25,4.7,4.7,25,4.7,50S25,95.3,50,95.3S95.3,75,95.3,50S75,4.7,50,4.7z"/>
</g>
<g>
	<path class="st0" d="M39.6,75.3l-3.1-3.1l22-22L36.2,27.9l3.1-3.1l23.8,23.8c0.9,0.9,0.9,2.3,0,3.1L39.6,75.3z"/>
</g>
</svg>
