<?xml version="1.0" encoding="utf-8"?>
<!-- Generator: Adobe Illustrator 21.0.0, SVG Export Plug-In . SVG Version: 6.00 Build 0)  -->
<svg version="1.1" id="Layer_1" xmlns="http://www.w3.org/2000/svg" xmlns:xlink="http://www.w3.org/1999/xlink" x="0px" y="0px"
	 viewBox="0 0 100 100" style="enable-background:new 0 0 100 100;" xml:space="preserve">
<style type="text/css">
	.st0{fill:#FEDA00;}
</style>
<g>
	<g>
		<path class="st0" d="M50,100C22.4,100,0,77.6,0,50S22.4,0,50,0s50,22.4,50,50S77.6,100,50,100z M50,2.5C23.8,2.5,2.5,23.8,2.5,50
			S23.8,97.5,50,97.5S97.5,76.2,97.5,50S76.2,2.5,50,2.5z"/>
	</g>
	<g>
		<path class="st0" d="M2.1,55.7l-1.8-1.8l8.1-8.1c1.7-1.7,4.1-2.7,6.5-2.7c2.5,0,4.8,1,6.5,2.7l3.5,3.5c1.1,1.1,2.6,1.7,4.2,1.7
			s3.1-0.6,4.2-1.7l3.5-3.5C38.7,44,41,43,43.5,43c2.5,0,4.8,1,6.5,2.7l4,4c1.1,1.1,2.6,1.7,4.2,1.7s3.1-0.6,4.2-1.7L66,46
			c1.7-1.7,4.1-2.7,6.5-2.7c2.5,0,4.8,1,6.5,2.7l3.8,3.8c1.1,1.1,2.6,1.7,4.2,1.7c1.6,0,3.1-0.6,4.2-1.7l6.4-6.4l1.8,1.8l-6.4,6.4
			c-3.3,3.3-8.6,3.3-11.9,0l-3.8-3.8c-2.6-2.6-6.9-2.6-9.5,0l-3.6,3.6c-1.6,1.6-3.7,2.5-6,2.5s-4.4-0.9-6-2.5l-4-4
			c-2.6-2.6-6.9-2.6-9.5,0L35.2,51c-1.6,1.6-3.7,2.5-6,2.5s-4.4-0.9-6-2.5l-3.5-3.5c-1.3-1.3-3-2-4.7-2c-1.8,0-3.5,0.7-4.7,2
			L2.1,55.7z"/>
	</g>
	<g>
		<path class="st0" d="M87,67.1c-2.2,0-4.3-0.8-6-2.5l-3.8-3.8c-2.6-2.6-6.9-2.6-9.5,0l-3.6,3.6c-1.6,1.6-3.7,2.5-6,2.5
			s-4.4-0.9-6-2.5l-4-4c-2.6-2.6-6.9-2.6-9.5,0l-3.5,3.5c-1.6,1.6-3.7,2.5-6,2.5s-4.4-0.9-6-2.5l-3.5-3.5c-1.3-1.3-3-2-4.7-2
			c-1.8,0-3.5,0.7-4.7,2l-5.8,5.8l-1.8-1.8l5.8-5.8c1.7-1.7,4.1-2.7,6.5-2.7c2.5,0,4.8,1,6.5,2.7l3.5,3.5c1.1,1.1,2.6,1.7,4.2,1.7
			s3.1-0.6,4.2-1.7l3.5-3.5c1.7-1.7,4.1-2.7,6.5-2.7c2.5,0,4.8,1,6.5,2.7l4,4c1.1,1.1,2.6,1.7,4.2,1.7s3.1-0.6,4.2-1.7l3.6-3.6
			c3.6-3.6,9.4-3.6,13,0l3.8,3.8c1.1,1.1,2.6,1.7,4.2,1.7c1.6,0,3.1-0.6,4.2-1.7l6.4-6.4l1.8,1.8l-6.4,6.4
			C91.3,66.3,89.1,67.1,87,67.1z"/>
	</g>
	<g>
		<path class="st0" d="M86.6,80.7c-0.3,0-0.5,0-0.8-0.1c-1.6-0.2-3.1-1.2-4.8-2.9L77.2,74c-2.6-2.6-6.9-2.6-9.5,0l-3.6,3.6
			c-1.6,1.6-3.7,2.5-6,2.5s-4.4-0.9-6-2.5l-4-4c-2.6-2.6-6.9-2.6-9.5,0l-3.5,3.5c-1.6,1.6-3.7,2.5-6,2.5s-4.4-0.9-6-2.5l-3.5-3.5
			c-1.3-1.3-3-2-4.7-2c-1.8,0-3.5,0.7-4.7,2l-1.6,1.6l-1.8-1.8l1.6-1.6c1.7-1.7,4.1-2.7,6.5-2.7c2.5,0,4.8,1,6.5,2.7l3.5,3.5
			c1.1,1.1,2.6,1.7,4.2,1.7s3.1-0.6,4.2-1.7l3.5-3.5c3.6-3.6,9.4-3.6,13,0l4,4c1.1,1.1,2.6,1.7,4.2,1.7s3.1-0.6,4.2-1.7l3.6-3.6
			c1.7-1.7,4.1-2.7,6.5-2.7c2.5,0,4.8,1,6.5,2.7l3.8,3.8c1.3,1.3,2.4,2,3.4,2.2c0.6,0.1,1.6,0.1,3-1.3l0.9-1.3l2.1,1.4l-0.9,1.4
			c0,0.1-0.1,0.1-0.2,0.2C89.6,80,88.1,80.7,86.6,80.7z"/>
	</g>
	<g>
		<path class="st0" d="M50.4,93.1c-2.2,0-4.3-0.8-6-2.5l-4-4c-1.3-1.3-3-2-4.7-2c-1.8,0-3.5,0.7-4.7,2l-3.5,3.5c-3,3-4.5,2-6.9,0.2
			c-0.4-0.3-0.9-0.7-1.4-1l1.5-2c0.6,0.4,1,0.8,1.4,1.1c0.8,0.6,1.5,1.1,1.9,1.2c0.3,0,0.9-0.4,1.7-1.2l3.5-3.5
			c3.6-3.6,9.4-3.6,13,0l4,4c2.3,2.3,6.1,2.3,8.4,0l3.6-3.6c3.6-3.6,9.4-3.6,13,0l4.7,4.9l-1.8,1.7L69.5,87c-2.6-2.6-6.9-2.6-9.5,0
			l-3.6,3.6C54.7,92.3,52.5,93.1,50.4,93.1z"/>
	</g>
</g>
</svg>
