<?xml version="1.0" encoding="utf-8"?>
<!-- Generator: Adobe Illustrator 21.0.0, SVG Export Plug-In . SVG Version: 6.00 Build 0)  -->
<svg version="1.1" id="Layer_1" xmlns="http://www.w3.org/2000/svg" xmlns:xlink="http://www.w3.org/1999/xlink" x="0px" y="0px"
	 viewBox="0 0 100 100" style="enable-background:new 0 0 100 100;" xml:space="preserve">
<style type="text/css">
	.st0{fill:#FEDA00;}
</style>
<g>
	<g>
		<path class="st0" d="M43.2,99.9h-0.6C31.1,99.7,21.1,95.5,13,87.4C8.6,83,5.4,78.1,3.3,72.8C1.4,68,0.5,62.7,0.5,57.1
			c0-11.7,4.2-21.9,12.5-30.2c8.2-8.2,18.1-12.4,29.6-12.5h1.3c7,0.1,13.4,1.7,19.1,4.7c0-0.2,0-0.5,0-0.7c0-5,1.8-9.4,5.4-13
			c3.6-3.6,8-5.4,13-5.4c5.1,0,9.4,1.8,13,5.4c3.6,3.6,5.4,8,5.4,13c0,3.4-0.9,6.8-2.8,9.9c-2.5,4.3-7.1,9.1-13.5,14.2
			c1.6,4.5,2.4,9.4,2.4,14.6c0,5.6-0.9,10.8-2.8,15.6c-2.1,5.3-5.3,10.2-9.7,14.6c-8.2,8.2-18.1,12.4-29.6,12.5H43.2z M44.5,73.6
			v23.6c5.6-0.5,10.5-4.4,14.6-11.4c2.1-3.7,3.8-7.7,4.9-12.1H44.5z M22.3,73.6c1.1,4.4,2.8,8.5,4.9,12.1c4.1,7.1,9,10.9,14.6,11.4
			V73.6H22.3z M66.9,73.6c-1.2,4.9-3,9.4-5.4,13.5c-2.1,3.7-4.5,6.5-7,8.6c6.4-1.8,12.1-5.2,17.1-10.2c3.6-3.6,6.4-7.6,8.3-11.9
			H66.9z M6.5,73.6c1.9,4.3,4.7,8.3,8.3,11.9c5,5,10.7,8.4,17.1,10.2c-2.6-2.1-4.9-5-7-8.6c-2.4-4.1-4.2-8.6-5.4-13.5L6.5,73.6z
			 M3.2,53.8c-0.1,1.1-0.1,2.2-0.1,3.3c0,4.9,0.8,9.5,2.3,13.8l11.3,0c-4.8-3.7-8.5-7.8-11.1-12C4.6,57.2,3.8,55.5,3.2,53.8z
			 M67.5,70.9H81c1.5-4.3,2.3-8.9,2.3-13.8c0-4.7-0.7-9.2-2.1-13.3H67.6c0.8,4.1,1.2,8.6,1.2,13.3C68.7,62,68.3,66.6,67.5,70.9z
			 M44.5,70.9h20.2c0.9-4.3,1.3-8.9,1.3-13.8c0-4.7-0.4-9.2-1.2-13.3H44.5V70.9z M24.2,70.9h17.7V17.1c-5.6,0.5-10.5,4.4-14.6,11.4
			c-0.4,0.6-0.7,1.2-1,1.9c2.7,0.9,5.2,2.4,7.4,4.6c3.6,3.6,5.4,8,5.4,13c0,3.4-0.9,6.8-2.8,9.9C33.9,61.9,29.9,66.2,24.2,70.9z
			 M5.7,42.8c-0.5,1.6-0.8,3.3-0.8,5.2c0,2.9,1.1,6.1,3.1,9.6c2.7,4.6,7,8.9,12.6,12.9c6.5-5.1,11-9.7,13.4-13.9
			c1.6-2.7,2.4-5.6,2.4-8.6c0-4.4-1.5-8-4.6-11.1c-2.2-2.2-4.8-3.7-7.7-4.3c0,0,0,0,0,0c-1.1-0.2-2.2-0.3-3.4-0.3
			c-4.4,0-8.1,1.5-11.2,4.6c-1.4,1.4-2.5,2.9-3.2,4.5C6,41.8,5.8,42.3,5.7,42.8z M67,41.2h10.3c-4.7-3.7-8.4-7.7-10.8-11.8
			c-1.4-2.4-2.4-4.7-3-6.9c-2.8-1.7-5.9-3-9.1-3.9c2.6,2.1,4.9,5,7.1,8.6C63.9,31.4,65.8,36.1,67,41.2z M44.5,41.2h19.7
			c-1.2-4.6-2.9-8.8-5.1-12.6c-4.1-7.1-9-10.9-14.6-11.4V41.2z M65.9,21.3c0.5,2.1,1.4,4.3,2.8,6.7c2.7,4.6,7,8.9,12.6,12.9
			c6.5-5.1,11-9.7,13.4-13.9c1.6-2.7,2.4-5.6,2.4-8.6c0-4.4-1.5-8-4.6-11.1c-3.1-3.1-6.7-4.6-11.1-4.6c-4.4,0-8.1,1.5-11.2,4.6
			c-3.1,3.1-4.6,6.7-4.6,11.1C65.6,19.3,65.7,20.3,65.9,21.3z M32,18.6c-6.4,1.8-12.1,5.2-17.1,10.2c-0.9,0.9-1.7,1.7-2.4,2.6
			c2.5-1.2,5.2-1.9,8.2-1.9c1,0,2,0.1,2.9,0.2c0.4-0.9,0.9-1.8,1.4-2.6C27.1,23.5,29.4,20.7,32,18.6z M20.6,57.9
			c-0.6,0-1.2-0.1-1.8-0.2c-2-0.4-3.7-1.3-5.2-2.8c-1.9-1.9-2.9-4.3-2.9-7c0-2.7,1-5.1,2.9-7c1.9-1.9,4.3-2.9,7-2.9
			c0.2,0,0.5,0,0.7,0c2.4,0.2,4.6,1.1,6.3,2.9c1.9,1.9,2.9,4.3,2.9,7c0,2.7-1,5.1-2.9,7C25.7,56.9,23.3,57.9,20.6,57.9z M20.6,40.7
			c-2,0-3.7,0.7-5.1,2.1C14,44.3,13.3,46,13.3,48c0,2,0.7,3.7,2.1,5.1c1.1,1.1,2.3,1.8,3.8,2c0.4,0.1,0.9,0.1,1.4,0.1
			c2,0,3.7-0.7,5.1-2.1c1.4-1.4,2.1-3.1,2.1-5.1c0-2-0.7-3.7-2.1-5.1c-1.3-1.3-2.8-2-4.6-2.1C21,40.7,20.8,40.7,20.6,40.7z
			 M81.4,28.3c-2.7,0-5.1-1-7-2.9c-1.9-1.9-2.9-4.3-2.9-7s1-5.1,2.9-7s4.3-2.9,7-2.9c2.7,0,5.1,1,7,2.9v0c0,0,0,0,0,0
			c1.9,1.9,2.9,4.3,2.9,7c0,2.7-1,5.1-2.9,7S84.1,28.3,81.4,28.3z M81.4,11.1c-2,0-3.7,0.7-5.1,2.1c-1.4,1.4-2.1,3.1-2.1,5.1
			s0.7,3.7,2.1,5.1c1.4,1.4,3.1,2.1,5.1,2.1c2,0,3.7-0.7,5.1-2.1c1.4-1.4,2.1-3.1,2.1-5.1s-0.7-3.7-2.1-5.1l0,0
			C85.1,11.8,83.4,11.1,81.4,11.1z"/>
	</g>
</g>
</svg>
