<?xml version="1.0" encoding="utf-8"?>
<!-- Generator: Adobe Illustrator 21.0.0, SVG Export Plug-In . SVG Version: 6.00 Build 0)  -->
<svg version="1.1" id="Layer_1" xmlns="http://www.w3.org/2000/svg" xmlns:xlink="http://www.w3.org/1999/xlink" x="0px" y="0px"
	 viewBox="0 0 100 100" style="enable-background:new 0 0 100 100;" xml:space="preserve">
<style type="text/css">
	.st0{fill:#FEDA00;}
</style>
<g>
	<g>
		<g>
			<g>
				<path class="st0" d="M50.3,81.7l-1.5,0c-0.6,0-1-0.5-1-1v-8.3c-5.7-0.5-10.6-2.9-14.7-7c-1.4-1.4-2.7-3-3.7-4.6
					c-2.3-3.7-3.4-7.9-3.4-12.5c0-3.8,0.8-7.3,2.3-10.5l-7.1-4.3c-0.5-0.3-0.6-0.9-0.4-1.4l0.1-0.2c0.2-0.4,0.4-0.7,0.6-1.1l0.2-0.3
					c0.2-0.3,0.4-0.6,0.6-0.9c0.3-0.4,0.9-0.6,1.4-0.3l7.2,4.4c0.7-0.9,1.4-1.7,2.2-2.5c4.1-4.1,9.1-6.5,14.7-7v-8.3
					c0-0.6,0.4-1,1-1l2.4,0l0.4,0c0.6,0,1,0.5,1,1v8.4c5.6,0.5,10.5,2.9,14.6,7c0.8,0.8,1.5,1.6,2.2,2.5l7.2-4.4
					c0.5-0.3,1.1-0.2,1.4,0.3c0.2,0.3,0.4,0.5,0.5,0.8l0.9,1.5c0.1,0.1,0.1,0.2,0.1,0.3c0.2,0.5,0.1,1.1-0.4,1.3l-7.2,4.3
					c1.5,3.2,2.3,6.7,2.3,10.5c0,4.6-1.1,8.8-3.4,12.5c-1,1.6-2.2,3.2-3.7,4.6c-4.1,4.1-9,6.4-14.6,7v8.4c0,0.6-0.4,1-1,1L50.3,81.7
					z M49.9,72.5v7.2h0.8v-7.2H49.9z M49.5,70.4H51c5.8-0.2,10.8-2.4,14.9-6.5c1.3-1.3,2.5-2.7,3.4-4.2c2.1-3.4,3.1-7.2,3.1-11.4
					c0-4-0.9-7.6-2.8-10.8l-0.6-1c-0.9-1.3-1.9-2.6-3.1-3.9c-4.1-4.1-9.1-6.3-14.9-6.5h-1.4c-5.8,0.2-10.8,2.3-15,6.5
					c-1.2,1.2-2.3,2.5-3.2,3.9c0,0.1-0.1,0.2-0.1,0.2c-0.1,0.2-0.3,0.5-0.4,0.7c0,0,0,0,0,0c-1.8,3.2-2.8,6.9-2.8,10.8
					c0,4.2,1,8.1,3.1,11.4c0.9,1.5,2,2.9,3.4,4.2C38.7,68.1,43.7,70.3,49.5,70.4z M23.1,32.2l6.2,3.8c0.1-0.1,0.1-0.2,0.2-0.3
					c0-0.1,0.1-0.1,0.1-0.2c0,0,0,0,0,0l0.1-0.1l-6.2-3.8c0,0,0,0,0,0l-0.2,0.3c0,0,0,0,0,0.1C23.2,32,23.1,32.1,23.1,32.2z
					 M70.7,35.4c0.1,0.1,0.1,0.2,0.2,0.3c0.1,0.1,0.1,0.2,0.2,0.3l6.2-3.8l-0.4-0.6L70.7,35.4L70.7,35.4z M49.9,24.1h0.8v-7.2
					l-0.8,0V24.1z"/>
			</g>
			<g>
				<path class="st0" d="M50.3,68.9L50.3,68.9c-5.8,0-10.7-2-14.7-6c-1.2-1.2-2.3-2.6-3.1-4c-1.9-3.1-2.9-6.7-2.9-10.7
					c0-4,1-7.6,3-10.8c0.8-1.3,1.9-2.6,3-3.8c4-4,8.9-6,14.6-6h0.1c5.7,0,10.5,2,14.5,6c1.2,1.2,2.2,2.5,3.1,3.8l0,0
					c2,3.2,3,6.8,3,10.8c0,3.9-1,7.5-2.9,10.7c-0.9,1.4-1.9,2.7-3.1,4C60.8,66.9,55.9,68.9,50.3,68.9z M34.8,58.7
					c0.7,0.9,1.4,1.9,2.3,2.7c3.4,3.4,7.5,5.2,12.2,5.4v-9.3c-2.2-0.2-4-1.1-5.6-2.7c-0.3-0.3-0.6-0.6-0.8-1L34.8,58.7z M51.3,57.5
					v9.3c4.7-0.2,8.7-2.1,12.1-5.4c0.9-0.9,1.6-1.8,2.3-2.7l-8-4.8c-0.3,0.3-0.5,0.7-0.8,1C55.2,56.4,53.4,57.3,51.3,57.5z
					 M58.7,52.1l8,4.9c1.4-2.6,2.1-5.5,2.1-8.7c0-3.2-0.7-6.2-2.2-8.8l-8,4.9c0.6,1.2,0.9,2.5,0.9,4C59.5,49.7,59.2,51,58.7,52.1z
					 M33.8,39.5c-1.4,2.6-2.2,5.6-2.2,8.8c0,3.2,0.7,6.1,2.1,8.7l8-4.9c-0.5-1.2-0.8-2.5-0.8-3.8c0-1.4,0.3-2.8,0.9-4L33.8,39.5z
					 M44,52L44,52c0.3,0.5,0.7,1,1.1,1.4c1.4,1.4,3.1,2.1,5.1,2.1h0.1c2,0,3.6-0.7,5-2.1c0.4-0.4,0.8-0.9,1.1-1.4l0,0l0,0l0,0
					c0.7-1.1,1-2.3,1-3.7c0-1.4-0.3-2.6-1-3.7l0-0.1c-0.3-0.5-0.6-0.9-1.1-1.3c-1.4-1.4-3.1-2.1-5-2.1h-0.1c-2,0-3.7,0.7-5.1,2.1
					c-0.4,0.4-0.8,0.9-1.1,1.3l0,0.1c-0.7,1.1-1,2.3-1,3.7C43,49.7,43.3,50.9,44,52L44,52z M34.9,37.7l8,4.9
					c0.2-0.3,0.5-0.6,0.8-0.8c1.6-1.6,3.5-2.5,5.6-2.7v-9.3c-4.7,0.2-8.8,2-12.2,5.4C36.2,35.9,35.5,36.8,34.9,37.7z M51.3,39.1
					c2.1,0.2,3.9,1.1,5.5,2.7c0.3,0.3,0.5,0.6,0.8,0.8l8-4.9c-0.6-0.9-1.4-1.8-2.2-2.6C60,31.8,56,30,51.3,29.7V39.1z M77.6,67.6
					L68,61.8l2.5-4.2l9.7,5.9l-0.5,0.9c-0.2,0.4-0.5,0.8-0.7,1.2c-0.3,0.4-0.5,0.8-0.8,1.2L77.6,67.6z M70.8,61.1l6.2,3.8
					c0.1-0.1,0.1-0.2,0.2-0.3c0.1-0.1,0.1-0.2,0.2-0.3l-6.2-3.8L70.8,61.1z M22.8,67.6l-0.5-0.8c-0.3-0.4-0.5-0.8-0.8-1.2
					c-0.3-0.4-0.5-0.8-0.7-1.3l-0.5-0.9l9.7-5.8l2.5,4.2L22.8,67.6z M23,64.2c0.1,0.1,0.1,0.2,0.2,0.3c0.1,0.1,0.1,0.2,0.2,0.3
					l6.2-3.7l-0.4-0.7L23,64.2z"/>
			</g>
		</g>
	</g>
	<g>
		<g>
			<path class="st0" d="M69.8,94.7c-1.1,0-2.3-0.2-3.6-0.7c-3.2-1.2-5.3-3.2-6.2-6.1c-1.4,0.3-2.7,0.6-4.1,0.8l-0.3-2
				c1.6-0.2,3.2-0.5,4.8-0.9l0.2-0.1c1.6-0.4,3.2-1,4.7-1.6c3.7-1.5,7.1-3.7,10.3-6.5c0.7-0.6,1.4-1.3,2.1-2c0.5-0.5,1-1.1,1.5-1.6
				c2.9-3.2,5.1-6.7,6.8-10.4c0.8-1.8,1.4-3.7,1.9-5.6c0.8-3.1,1.1-6.4,1.1-9.9c0-0.8,0-1.6,0-2.3c-0.1-1.9-0.4-3.8-0.7-5.7
				c-0.8-4-2.2-7.9-4.3-11.4c-0.8-1.4-1.8-2.8-2.8-4.1c-1.1-1.4-2.3-2.8-3.6-4c-0.7-0.7-1.5-1.4-2.2-2.1c-3.3,0.4-6.2-0.8-8.6-3.5
				c-2.5-2.9-3.2-5.8-1.9-8.8L65,5.8l0.5-0.1c3.1-0.9,6,0,8.5,2.8c2.4,2.6,3.3,5.5,2.7,8.7c0.8,0.7,1.5,1.3,2.2,2.1
				c0.6,0.6,1.1,1.1,1.6,1.7c0-0.3,0-0.6,0.1-0.9c0.5-3.8,2.4-6.2,5.4-7.2l0.5-0.2l0.4,0.3c2.7,1.8,3.9,4.6,3.5,8.4
				c-0.4,3.3-1.8,5.7-4.3,7.4c1.4,2.5,2.5,5.2,3.3,8c1.8-3.2,4.4-4.7,7.6-4.6l0.5,0l0.3,0.4c1.9,2.6,1.9,5.7,0.2,9.1
				c-1.6,3-4,4.8-7,5.3c0,0.4,0,0.8,0,1.3c0,2.5-0.2,5-0.6,7.4c3.1-2,6.1-2.2,8.9-0.7l0.4,0.2l0.1,0.5c0.4,3.2-0.9,5.9-4,8.1
				c-2.8,1.9-5.6,2.4-8.5,1.6c-1.2,2.6-2.7,5.1-4.6,7.5c0.1,0,0.2,0,0.2,0c3.8-0.4,6.6,0.8,8.4,3.5l0.3,0.4L91.5,77
				c-1,3-3.5,4.9-7.2,5.4c-3.4,0.5-6.2-0.4-8.4-2.6c-2.2,1.8-4.5,3.3-6.9,4.6c0.2,0.1,0.5,0.2,0.7,0.3c3.5,1.4,5.4,3.7,5.8,6.9
				l0.1,0.5l-0.4,0.4C73.6,94,71.8,94.7,69.8,94.7z M61.9,87.3c0.8,2.2,2.4,3.8,4.9,4.7c2.6,0.9,4.7,0.7,6.5-0.7
				c-0.4-2.2-1.9-3.7-4.4-4.7c-1.1-0.4-2.2-0.7-3.1-0.7C64.5,86.5,63.2,87,61.9,87.3z M77.4,78.5c1.8,1.6,3.9,2.2,6.6,1.9
				c2.8-0.4,4.5-1.6,5.4-3.6c-1.3-1.7-3.4-2.4-6.1-2.1c-1,0.1-2,0.4-2.8,0.8C80,76,79.5,76.5,79,77C78.5,77.5,78,78,77.4,78.5z
				 M88.2,63.4c2.2,0.6,4.3,0.1,6.5-1.4c2.3-1.6,3.3-3.4,3.2-5.6c-2-0.9-4.1-0.6-6.4,0.9c-0.7,0.4-1.2,0.9-1.7,1.5
				C89.3,60.3,88.8,61.8,88.2,63.4z M90.3,39.9c0.3,1.6,0.5,3.2,0.6,4.8c2.3-0.5,4-1.9,5.3-4.2c1.3-2.5,1.4-4.6,0.3-6.5
				c-2.2,0.1-4,1.3-5.3,3.8C90.8,38.5,90.5,39.2,90.3,39.9z M82.9,23.6c0.8,1,1.6,2.1,2.3,3.2c1.9-1.3,3-3.2,3.3-5.8
				c0.3-2.8-0.4-4.8-2.1-6.1c-2,0.9-3.2,2.6-3.6,5.4C82.6,21.4,82.7,22.6,82.9,23.6z M66.6,7.5c-0.7,2.1-0.1,4.1,1.7,6.2
				c1.9,2.1,4,3,6.5,2.8c0.4-2.4-0.3-4.7-2.3-6.7C70.7,7.8,68.7,7.1,66.6,7.5z"/>
		</g>
	</g>
	<g>
		<g>
			<path class="st0" d="M30.2,94.7c-2,0-3.8-0.7-5.3-2.1l-0.4-0.4l0.1-0.5c0.3-3.2,2.3-5.5,5.8-6.9c0.2-0.1,0.5-0.2,0.7-0.3
				c-2.4-1.3-4.7-2.8-6.9-4.6c-2.2,2.2-5.1,3-8.4,2.6c-3.8-0.5-6.2-2.4-7.2-5.4l-0.2-0.5l0.3-0.4c1.8-2.7,4.6-3.9,8.4-3.5
				c0.1,0,0.2,0,0.3,0c-1.8-2.4-3.3-4.9-4.6-7.5c-2.9,0.9-5.7,0.3-8.5-1.6c-3.1-2.2-4.4-4.9-4-8.1l0.1-0.5l0.4-0.3
				c2.8-1.6,5.8-1.4,8.9,0.7C9.2,53.1,9,50.6,9,48.1c0-0.4,0-0.9,0-1.3c-3-0.5-5.4-2.3-7-5.3l0,0c-1.8-3.4-1.7-6.4,0.2-9.1L2.4,32
				l0.5,0c3.2-0.1,5.7,1.5,7.6,4.6c0.8-2.8,1.9-5.5,3.3-8c-2.5-1.6-3.9-4.1-4.3-7.4l0,0c-0.4-3.8,0.8-6.6,3.5-8.4l0.4-0.3l0.5,0.2
				c3,1,4.9,3.5,5.4,7.2c0,0.3,0.1,0.6,0.1,0.9c0.5-0.6,1.1-1.1,1.6-1.7c0.7-0.7,1.5-1.4,2.2-2.1c-0.6-3.2,0.3-6.1,2.7-8.7
				c2.6-2.8,5.5-3.7,8.5-2.8L35,5.8l0.2,0.5c1.2,3,0.6,6-1.9,8.8c-2.4,2.7-5.3,3.9-8.6,3.5c-0.8,0.6-1.5,1.3-2.2,2.1
				c-1.2,1.2-2.4,2.5-3.4,3.9l0,0l-0.1,0.2c-1,1.3-2,2.7-2.8,4.1L16,29c-2,3.4-3.4,7.2-4.2,11.1l0,0c-0.4,1.8-0.6,3.7-0.7,5.7
				c0,0.7,0,1.5,0,2.3c0,3.4,0.4,6.8,1.2,9.9c0.5,1.9,1.1,3.8,1.9,5.6c1.6,3.7,3.9,7.2,6.8,10.4c0.5,0.5,1,1,1.5,1.6
				c0.7,0.7,1.4,1.4,2.1,2.1c3.2,2.7,6.6,4.9,10.3,6.4c1.5,0.6,3.1,1.2,4.7,1.6l0.2,0.1c1.6,0.4,3.1,0.7,4.8,0.9l-0.3,2
				c-1.4-0.2-2.8-0.4-4.1-0.8c-1,2.9-3.1,4.9-6.2,6.1C32.6,94.4,31.4,94.7,30.2,94.7z M26.7,91.4c1.7,1.4,3.9,1.6,6.5,0.7
				c2.5-0.9,4.1-2.5,4.9-4.7c-1.3-0.4-2.6-0.8-3.8-1.3c-1,0-2,0.2-3.1,0.7C28.6,87.7,27.1,89.2,26.7,91.4z M10.6,76.9
				c0.9,2,2.6,3.2,5.4,3.6c2.7,0.4,4.8-0.3,6.6-1.9C22,78,21.5,77.5,21,77c-0.5-0.5-1-1-1.4-1.5c-0.8-0.4-1.8-0.6-2.8-0.8
				C13.9,74.4,11.9,75.1,10.6,76.9z M2.2,56.4c-0.1,2.2,0.9,4,3.2,5.6c2.1,1.5,4.3,1.9,6.5,1.4c-0.6-1.5-1.1-3.1-1.6-4.6
				c-0.5-0.5-1.1-1-1.7-1.5C6.2,55.7,4.1,55.5,2.2,56.4z M3.8,40.5c1.3,2.4,3,3.8,5.3,4.2c0.1-1.6,0.3-3.3,0.6-4.8
				c-0.2-0.7-0.5-1.4-0.9-2.1c-1.4-2.4-3.1-3.7-5.3-3.8C2.4,35.9,2.5,38,3.8,40.5z M11.5,21c0.3,2.6,1.4,4.5,3.3,5.8
				c0.7-1.1,1.5-2.2,2.3-3.2c0.2-1,0.3-2.2,0.1-3.4c-0.4-2.7-1.6-4.5-3.6-5.4C11.9,16.2,11.2,18.2,11.5,21z M25.2,16.6
				c2.5,0.2,4.6-0.7,6.5-2.8c1.8-2.1,2.4-4.1,1.7-6.2c-2.1-0.4-4.1,0.3-6,2.3C25.5,11.9,24.8,14.1,25.2,16.6z"/>
		</g>
	</g>
</g>
</svg>
