<?xml version="1.0" encoding="UTF-8"?><!DOCTYPE svg PUBLIC "-//W3C//DTD SVG 1.1//EN" "http://www.w3.org/Graphics/SVG/1.1/DTD/svg11.dtd"><svg xmlns="http://www.w3.org/2000/svg" xmlns:xlink="http://www.w3.org/1999/xlink"><defs>
        <path id="SVGID_1_" d="M25.7 17.8h48.9v64.8H25.7z"/>
    </defs><symbol id="icon-adress" viewBox="0 0 100 100">
    <style>
        .st0{clip-path:url(#SVGID_2_)}
    </style>
    
    <clipPath id="SVGID_2_">
        <use xlink:href="#SVGID_1_" overflow="visible"/>
    </clipPath>
    <path class="st0" d="M50 81.8c-1 0-1.9-.5-2.4-1.3L31.7 58.2c-1.5-2-3-4.2-4.1-6.7-.6-1.5-1.1-3-1.4-4.6-.3-1.6-.5-3.2-.5-4.8 0-6.5 2.5-12.6 7.1-17.2 2.3-2.3 4.9-4 7.9-5.3 5.9-2.4 12.6-2.4 18.5 0 3 1.2 5.6 3 7.9 5.3 4.6 4.6 7.1 10.7 7.1 17.2 0 1.6-.2 3.2-.5 4.8-.3 1.6-.8 3.1-1.4 4.6-1.1 2.6-2.6 4.7-4.1 6.7-.2.2-.3.4-.7 1L52.4 80.5c-.5.8-1.4 1.3-2.4 1.3zm0-61.9c-2.9 0-5.8.6-8.5 1.7s-5.1 2.7-7.2 4.8c-4.2 4.2-6.5 9.8-6.5 15.7 0 1.5.1 2.9.4 4.4.3 1.4.7 2.9 1.3 4.2 1 2.3 2.4 4.3 3.8 6.3l.7 1 15.1 21.3c.3.5 1.1.5 1.4 0L65.6 58c.4-.6.5-.8.7-1 1.5-2.1 2.9-4 3.8-6.3.6-1.3 1-2.8 1.3-4.2.3-1.5.4-2.9.4-4.4 0-5.9-2.3-11.5-6.5-15.7-2.1-2.1-4.5-3.7-7.2-4.8-2.3-1.1-5.2-1.7-8.1-1.7zm0 36.7c-8.1 0-14.6-6.5-14.6-14.6 0-8 6.5-14.6 14.6-14.6 8 0 14.6 6.5 14.6 14.6S58 56.6 50 56.6zm0-27c-6.9 0-12.5 5.6-12.5 12.5S43.1 54.6 50 54.6 62.5 49 62.5 42.1 56.9 29.6 50 29.6zm0 0"/>
    <path d="M50.2 100C22.7 100 .3 77.6.3 50.2S22.7.3 50.2.3 100 22.7 100 50.1 77.6 100 50.2 100zm0-97.5C23.9 2.5 2.5 23.9 2.5 50.2c0 26.3 21.4 47.6 47.6 47.6s47.6-21.4 47.6-47.6c.1-26.3-21.3-47.7-47.5-47.7z"/>
</symbol><symbol id="icon-facebook" viewBox="0 0 100 100">
    <path d="M42 80.6h12.1c1 0 1.9-.8 1.9-1.9V51.6h6.3c1 0 1.8-.7 1.9-1.7l1.1-10.2c.1-.5-.1-1.1-.5-1.4-.4-.4-.9-.6-1.4-.6H56v-4.2c0-.9.3-.9.7-.9h6.5c1 0 1.9-.8 1.9-1.9v-9.9c0-1-.8-1.9-1.9-1.9h-8.9c-6.3 0-9.6 2.8-11.3 5.1-2.4 3.2-2.7 7-2.7 9v4.8h-3.9c-1 0-1.9.8-1.9 1.9v10.2c0 1 .8 1.9 1.9 1.9h3.9v27.1c-.1.9.7 1.7 1.7 1.7zm-3.8-32.8v-6.5H42c1 0 1.9-.8 1.9-1.9v-6.6c0-1.2.2-4.3 2-6.8 1.7-2.4 4.5-3.5 8.3-3.5h7.1v6.2h-4.6c-2.2 0-4.4 1.4-4.4 4.7v6c0 1 .8 1.9 1.9 1.9h7.1l-.7 6.5h-6.4c-1 0-1.9.8-1.9 1.9v27.1H44V49.7c0-1-.8-1.9-1.9-1.9h-3.9zm0 0"/>
    <path d="M84.7 14.8C75.4 5.5 63 .3 49.8.3S24.2 5.5 14.9 14.8C5.6 24.1.4 36.5.4 49.7s5.1 25.6 14.5 34.9c9.3 9.3 21.7 14.5 34.9 14.5S75.4 94 84.7 84.6c9.3-9.3 14.5-21.7 14.5-34.9S94 24.1 84.7 14.8zm-2.2 67.6C73.8 91.2 62.2 96 49.8 96c-12.4 0-24-4.8-32.7-13.6C8.3 73.7 3.5 62.1 3.5 49.7c0-12.4 4.8-24 13.6-32.7S37.4 3.4 49.8 3.4c12.4 0 24 4.8 32.7 13.6 8.7 8.7 13.6 20.4 13.6 32.7 0 12.4-4.8 24-13.6 32.7zm0 0"/>
</symbol><symbol id="icon-instagram" viewBox="0 0 100 100">
    <path d="M85.4 14.6C75.9 5.2 63.4 0 50.1 0S24.2 5.2 14.7 14.6C5.3 24 .1 36.6.1 49.9c0 13.3 5.2 25.9 14.6 35.3 9.4 9.4 22 14.6 35.3 14.6 13.3 0 25.9-5.2 35.3-14.6 9.4-9.4 14.6-22 14.6-35.3.1-13.3-5.1-25.8-14.5-35.3zm-2.2 68.5c-8.8 8.8-20.6 13.7-33.1 13.7S25.8 91.9 17 83.1C8.1 74.2 3.2 62.5 3.2 49.9c0-12.5 4.9-24.3 13.7-33.1C25.8 8 37.5 3.1 50.1 3.1c12.5 0 24.3 4.9 33.1 13.7 8.8 8.8 13.7 20.6 13.7 33.1 0 12.6-4.9 24.3-13.7 33.2zm0 0"/>
    <path d="M63.2 24.9H37c-6.6 0-12 5.4-12 12V63c0 6.6 5.4 12 12 12h26.1c6.6 0 12-5.4 12-12V36.9c.1-6.6-5.3-12-11.9-12zM72 63.1c0 4.9-4 8.9-8.9 8.9H37c-4.9 0-8.9-4-8.9-8.9V36.9c0-4.9 4-8.9 8.9-8.9h26.1c4.9 0 8.9 4 8.9 8.9v26.2zm0 0"/>
    <path d="M64.1 34.1c-1.1 0-1.9.9-1.9 1.9 0 1.1.9 1.9 1.9 1.9 1.1 0 1.9-.9 1.9-1.9.1-1.1-.8-1.9-1.9-1.9zm0 0"/>
    <path d="M50.1 37.7c-6.8 0-12.3 5.5-12.3 12.3 0 6.8 5.5 12.3 12.3 12.3S62.4 56.8 62.4 50c0-6.8-5.5-12.3-12.3-12.3zm0 21.4c-5 0-9.1-4.1-9.1-9.1s4.1-9.1 9.1-9.1 9.1 4.1 9.1 9.1-4.1 9.1-9.1 9.1zm0 0"/>
</symbol><symbol id="icon-next" viewBox="0 0 100 100">
    <style>
        .st0{fill:#feda00}
    </style>
    <path class="st0" d="M50 99.8C22.6 99.8.3 77.4.3 50S22.6.2 50 .2 99.8 22.6 99.8 50 77.4 99.8 50 99.8zm0-95.1C25 4.7 4.7 25 4.7 50S25 95.3 50 95.3 95.3 75 95.3 50 75 4.7 50 4.7z"/>
    <path class="st0" d="M39.6 75.3l-3.1-3.1 22-22-22.3-22.3 3.1-3.1 23.8 23.8c.9.9.9 2.3 0 3.1L39.6 75.3z"/>
</symbol><symbol id="icon-waves" viewBox="0 0 100 100">
    <style>
        .st0{fill:#feda00}
    </style>
    <path class="st0" d="M50 100C22.4 100 0 77.6 0 50S22.4 0 50 0s50 22.4 50 50-22.4 50-50 50zm0-97.5C23.8 2.5 2.5 23.8 2.5 50S23.8 97.5 50 97.5 97.5 76.2 97.5 50 76.2 2.5 50 2.5z"/>
    <path class="st0" d="M2.1 55.7L.3 53.9l8.1-8.1c1.7-1.7 4.1-2.7 6.5-2.7 2.5 0 4.8 1 6.5 2.7l3.5 3.5c1.1 1.1 2.6 1.7 4.2 1.7s3.1-.6 4.2-1.7l3.5-3.5C38.7 44 41 43 43.5 43s4.8 1 6.5 2.7l4 4c1.1 1.1 2.6 1.7 4.2 1.7s3.1-.6 4.2-1.7L66 46c1.7-1.7 4.1-2.7 6.5-2.7 2.5 0 4.8 1 6.5 2.7l3.8 3.8c1.1 1.1 2.6 1.7 4.2 1.7s3.1-.6 4.2-1.7l6.4-6.4 1.8 1.8-6.4 6.4a8.39 8.39 0 0 1-11.9 0l-3.8-3.8c-2.6-2.6-6.9-2.6-9.5 0l-3.6 3.6c-1.6 1.6-3.7 2.5-6 2.5s-4.4-.9-6-2.5l-4-4c-2.6-2.6-6.9-2.6-9.5 0L35.2 51c-1.6 1.6-3.7 2.5-6 2.5s-4.4-.9-6-2.5l-3.5-3.5c-1.3-1.3-3-2-4.7-2-1.8 0-3.5.7-4.7 2l-8.2 8.2z"/>
    <path class="st0" d="M87 67.1c-2.2 0-4.3-.8-6-2.5l-3.8-3.8c-2.6-2.6-6.9-2.6-9.5 0l-3.6 3.6c-1.6 1.6-3.7 2.5-6 2.5s-4.4-.9-6-2.5l-4-4c-2.6-2.6-6.9-2.6-9.5 0l-3.5 3.5c-1.6 1.6-3.7 2.5-6 2.5s-4.4-.9-6-2.5l-3.5-3.5c-1.3-1.3-3-2-4.7-2-1.8 0-3.5.7-4.7 2l-5.8 5.8-1.8-1.8 5.8-5.8c1.7-1.7 4.1-2.7 6.5-2.7 2.5 0 4.8 1 6.5 2.7l3.5 3.5c1.1 1.1 2.6 1.7 4.2 1.7s3.1-.6 4.2-1.7l3.5-3.5c1.7-1.7 4.1-2.7 6.5-2.7 2.5 0 4.8 1 6.5 2.7l4 4c1.1 1.1 2.6 1.7 4.2 1.7s3.1-.6 4.2-1.7l3.6-3.6c3.6-3.6 9.4-3.6 13 0l3.8 3.8c1.1 1.1 2.6 1.7 4.2 1.7s3.1-.6 4.2-1.7l6.4-6.4 1.8 1.8-6.4 6.4c-1.5 1.7-3.7 2.5-5.8 2.5z"/>
    <path class="st0" d="M86.6 80.7c-.3 0-.5 0-.8-.1-1.6-.2-3.1-1.2-4.8-2.9L77.2 74c-2.6-2.6-6.9-2.6-9.5 0l-3.6 3.6c-1.6 1.6-3.7 2.5-6 2.5s-4.4-.9-6-2.5l-4-4c-2.6-2.6-6.9-2.6-9.5 0l-3.5 3.5c-1.6 1.6-3.7 2.5-6 2.5s-4.4-.9-6-2.5l-3.5-3.5c-1.3-1.3-3-2-4.7-2-1.8 0-3.5.7-4.7 2l-1.6 1.6-1.8-1.8 1.6-1.6c1.7-1.7 4.1-2.7 6.5-2.7 2.5 0 4.8 1 6.5 2.7l3.5 3.5c1.1 1.1 2.6 1.7 4.2 1.7s3.1-.6 4.2-1.7l3.5-3.5c3.6-3.6 9.4-3.6 13 0l4 4c1.1 1.1 2.6 1.7 4.2 1.7s3.1-.6 4.2-1.7l3.6-3.6c1.7-1.7 4.1-2.7 6.5-2.7 2.5 0 4.8 1 6.5 2.7l3.8 3.8c1.3 1.3 2.4 2 3.4 2.2.6.1 1.6.1 3-1.3l.9-1.3L92 77l-.9 1.4c0 .1-.1.1-.2.2-1.3 1.4-2.8 2.1-4.3 2.1z"/>
    <path class="st0" d="M50.4 93.1c-2.2 0-4.3-.8-6-2.5l-4-4c-1.3-1.3-3-2-4.7-2-1.8 0-3.5.7-4.7 2l-3.5 3.5c-3 3-4.5 2-6.9.2-.4-.3-.9-.7-1.4-1l1.5-2c.6.4 1 .8 1.4 1.1.8.6 1.5 1.1 1.9 1.2.3 0 .9-.4 1.7-1.2l3.5-3.5c3.6-3.6 9.4-3.6 13 0l4 4c2.3 2.3 6.1 2.3 8.4 0l3.6-3.6c3.6-3.6 9.4-3.6 13 0l4.7 4.9-1.8 1.7-4.6-4.9c-2.6-2.6-6.9-2.6-9.5 0l-3.6 3.6c-1.7 1.7-3.9 2.5-6 2.5z"/>
</symbol><symbol id="icon-world" viewBox="0 0 100 100">
    <style>
        .st0{fill:#feda00}
    </style>
    <path class="st0" d="M43.2 99.9h-.6c-11.5-.2-21.5-4.4-29.6-12.5-4.4-4.4-7.6-9.3-9.7-14.6C1.4 68 .5 62.7.5 57.1.5 45.4 4.7 35.2 13 26.9c8.2-8.2 18.1-12.4 29.6-12.5h1.3c7 .1 13.4 1.7 19.1 4.7v-.7c0-5 1.8-9.4 5.4-13 3.6-3.6 8-5.4 13-5.4 5.1 0 9.4 1.8 13 5.4 3.6 3.6 5.4 8 5.4 13 0 3.4-.9 6.8-2.8 9.9-2.5 4.3-7.1 9.1-13.5 14.2 1.6 4.5 2.4 9.4 2.4 14.6 0 5.6-.9 10.8-2.8 15.6-2.1 5.3-5.3 10.2-9.7 14.6-8.2 8.2-18.1 12.4-29.6 12.5h-.6zm1.3-26.3v23.6c5.6-.5 10.5-4.4 14.6-11.4 2.1-3.7 3.8-7.7 4.9-12.1H44.5zm-22.2 0c1.1 4.4 2.8 8.5 4.9 12.1 4.1 7.1 9 10.9 14.6 11.4V73.6H22.3zm44.6 0c-1.2 4.9-3 9.4-5.4 13.5-2.1 3.7-4.5 6.5-7 8.6 6.4-1.8 12.1-5.2 17.1-10.2 3.6-3.6 6.4-7.6 8.3-11.9h-13zm-60.4 0c1.9 4.3 4.7 8.3 8.3 11.9 5 5 10.7 8.4 17.1 10.2-2.6-2.1-4.9-5-7-8.6-2.4-4.1-4.2-8.6-5.4-13.5h-13zM3.2 53.8c-.1 1.1-.1 2.2-.1 3.3 0 4.9.8 9.5 2.3 13.8h11.3c-4.8-3.7-8.5-7.8-11.1-12-1-1.7-1.8-3.4-2.4-5.1zm64.3 17.1H81c1.5-4.3 2.3-8.9 2.3-13.8 0-4.7-.7-9.2-2.1-13.3H67.6c.8 4.1 1.2 8.6 1.2 13.3-.1 4.9-.5 9.5-1.3 13.8zm-23 0h20.2c.9-4.3 1.3-8.9 1.3-13.8 0-4.7-.4-9.2-1.2-13.3H44.5v27.1zm-20.3 0h17.7V17.1c-5.6.5-10.5 4.4-14.6 11.4-.4.6-.7 1.2-1 1.9 2.7.9 5.2 2.4 7.4 4.6 3.6 3.6 5.4 8 5.4 13 0 3.4-.9 6.8-2.8 9.9-2.4 4-6.4 8.3-12.1 13zM5.7 42.8c-.5 1.6-.8 3.3-.8 5.2 0 2.9 1.1 6.1 3.1 9.6 2.7 4.6 7 8.9 12.6 12.9 6.5-5.1 11-9.7 13.4-13.9 1.6-2.7 2.4-5.6 2.4-8.6 0-4.4-1.5-8-4.6-11.1-2.2-2.2-4.8-3.7-7.7-4.3-1.1-.2-2.2-.3-3.4-.3-4.4 0-8.1 1.5-11.2 4.6-1.4 1.4-2.5 2.9-3.2 4.5-.3.4-.5.9-.6 1.4zM67 41.2h10.3c-4.7-3.7-8.4-7.7-10.8-11.8-1.4-2.4-2.4-4.7-3-6.9-2.8-1.7-5.9-3-9.1-3.9 2.6 2.1 4.9 5 7.1 8.6 2.4 4.2 4.3 8.9 5.5 14zm-22.5 0h19.7c-1.2-4.6-2.9-8.8-5.1-12.6-4.1-7.1-9-10.9-14.6-11.4v24zm21.4-19.9c.5 2.1 1.4 4.3 2.8 6.7 2.7 4.6 7 8.9 12.6 12.9 6.5-5.1 11-9.7 13.4-13.9 1.6-2.7 2.4-5.6 2.4-8.6 0-4.4-1.5-8-4.6-11.1-3.1-3.1-6.7-4.6-11.1-4.6-4.4 0-8.1 1.5-11.2 4.6-3.1 3.1-4.6 6.7-4.6 11.1 0 .9.1 1.9.3 2.9zM32 18.6c-6.4 1.8-12.1 5.2-17.1 10.2-.9.9-1.7 1.7-2.4 2.6 2.5-1.2 5.2-1.9 8.2-1.9 1 0 2 .1 2.9.2.4-.9.9-1.8 1.4-2.6 2.1-3.6 4.4-6.4 7-8.5zM20.6 57.9c-.6 0-1.2-.1-1.8-.2-2-.4-3.7-1.3-5.2-2.8-1.9-1.9-2.9-4.3-2.9-7s1-5.1 2.9-7c1.9-1.9 4.3-2.9 7-2.9h.7c2.4.2 4.6 1.1 6.3 2.9 1.9 1.9 2.9 4.3 2.9 7s-1 5.1-2.9 7c-1.9 2-4.3 3-7 3zm0-17.2c-2 0-3.7.7-5.1 2.1-1.5 1.5-2.2 3.2-2.2 5.2s.7 3.7 2.1 5.1c1.1 1.1 2.3 1.8 3.8 2 .4.1.9.1 1.4.1 2 0 3.7-.7 5.1-2.1 1.4-1.4 2.1-3.1 2.1-5.1 0-2-.7-3.7-2.1-5.1-1.3-1.3-2.8-2-4.6-2.1-.1-.1-.3-.1-.5-.1zm60.8-12.4c-2.7 0-5.1-1-7-2.9-1.9-1.9-2.9-4.3-2.9-7s1-5.1 2.9-7 4.3-2.9 7-2.9 5.1 1 7 2.9c1.9 1.9 2.9 4.3 2.9 7s-1 5.1-2.9 7-4.3 2.9-7 2.9zm0-17.2c-2 0-3.7.7-5.1 2.1-1.4 1.4-2.1 3.1-2.1 5.1s.7 3.7 2.1 5.1c1.4 1.4 3.1 2.1 5.1 2.1 2 0 3.7-.7 5.1-2.1 1.4-1.4 2.1-3.1 2.1-5.1s-.7-3.7-2.1-5.1c-1.4-1.4-3.1-2.1-5.1-2.1z"/>
</symbol><symbol id="icon-wreath" viewBox="0 0 100 100">
    <style>
        .st0{fill:#feda00}
    </style>
    <path class="st0" d="M50.3 81.7h-1.5c-.6 0-1-.5-1-1v-8.3c-5.7-.5-10.6-2.9-14.7-7-1.4-1.4-2.7-3-3.7-4.6-2.3-3.7-3.4-7.9-3.4-12.5 0-3.8.8-7.3 2.3-10.5l-7.1-4.3c-.5-.3-.6-.9-.4-1.4l.1-.2c.2-.4.4-.7.6-1.1l.2-.3.6-.9c.3-.4.9-.6 1.4-.3l7.2 4.4c.7-.9 1.4-1.7 2.2-2.5 4.1-4.1 9.1-6.5 14.7-7v-8.3c0-.6.4-1 1-1h2.8c.6 0 1 .5 1 1v8.4c5.6.5 10.5 2.9 14.6 7 .8.8 1.5 1.6 2.2 2.5l7.2-4.4c.5-.3 1.1-.2 1.4.3.2.3.4.5.5.8l.9 1.5c.1.1.1.2.1.3.2.5.1 1.1-.4 1.3l-7.2 4.3c1.5 3.2 2.3 6.7 2.3 10.5 0 4.6-1.1 8.8-3.4 12.5-1 1.6-2.2 3.2-3.7 4.6-4.1 4.1-9 6.4-14.6 7v8.4c0 .6-.4 1-1 1l-1.2-.2zm-.4-9.2v7.2h.8v-7.2h-.8zm-.4-2.1H51c5.8-.2 10.8-2.4 14.9-6.5 1.3-1.3 2.5-2.7 3.4-4.2 2.1-3.4 3.1-7.2 3.1-11.4 0-4-.9-7.6-2.8-10.8l-.6-1c-.9-1.3-1.9-2.6-3.1-3.9-4.1-4.1-9.1-6.3-14.9-6.5h-1.4c-5.8.2-10.8 2.3-15 6.5-1.2 1.2-2.3 2.5-3.2 3.9 0 .1-.1.2-.1.2-.1.2-.3.5-.4.7-1.8 3.2-2.8 6.9-2.8 10.8 0 4.2 1 8.1 3.1 11.4.9 1.5 2 2.9 3.4 4.2 4.1 4.3 9.1 6.5 14.9 6.6zM23.1 32.2l6.2 3.8c.1-.1.1-.2.2-.3 0-.1.1-.1.1-.2l.1-.1-6.2-3.8-.2.3v.1c-.1 0-.2.1-.2.2zm47.6 3.2c.1.1.1.2.2.3.1.1.1.2.2.3l6.2-3.8-.4-.6-6.2 3.8zM49.9 24.1h.8v-7.2h-.8v7.2z"/>
    <path class="st0" d="M50.3 68.9c-5.8 0-10.7-2-14.7-6-1.2-1.2-2.3-2.6-3.1-4-1.9-3.1-2.9-6.7-2.9-10.7 0-4 1-7.6 3-10.8.8-1.3 1.9-2.6 3-3.8 4-4 8.9-6 14.6-6h.1c5.7 0 10.5 2 14.5 6 1.2 1.2 2.2 2.5 3.1 3.8 2 3.2 3 6.8 3 10.8 0 3.9-1 7.5-2.9 10.7-.9 1.4-1.9 2.7-3.1 4-4.1 4-9 6-14.6 6zM34.8 58.7c.7.9 1.4 1.9 2.3 2.7 3.4 3.4 7.5 5.2 12.2 5.4v-9.3c-2.2-.2-4-1.1-5.6-2.7-.3-.3-.6-.6-.8-1l-8.1 4.9zm16.5-1.2v9.3c4.7-.2 8.7-2.1 12.1-5.4.9-.9 1.6-1.8 2.3-2.7l-8-4.8c-.3.3-.5.7-.8 1-1.7 1.5-3.5 2.4-5.6 2.6zm7.4-5.4l8 4.9c1.4-2.6 2.1-5.5 2.1-8.7 0-3.2-.7-6.2-2.2-8.8l-8 4.9c.6 1.2.9 2.5.9 4 0 1.3-.3 2.6-.8 3.7zM33.8 39.5c-1.4 2.6-2.2 5.6-2.2 8.8 0 3.2.7 6.1 2.1 8.7l8-4.9c-.5-1.2-.8-2.5-.8-3.8 0-1.4.3-2.8.9-4l-8-4.8zM44 52c.3.5.7 1 1.1 1.4 1.4 1.4 3.1 2.1 5.1 2.1h.1c2 0 3.6-.7 5-2.1.4-.4.8-.9 1.1-1.4.7-1.1 1-2.3 1-3.7 0-1.4-.3-2.6-1-3.7v-.1c-.3-.5-.6-.9-1.1-1.3-1.4-1.4-3.1-2.1-5-2.1h-.1c-2 0-3.7.7-5.1 2.1-.4.4-.8.9-1.1 1.3v.1c-.7 1.1-1 2.3-1 3.7 0 1.4.3 2.6 1 3.7zm-9.1-14.3l8 4.9c.2-.3.5-.6.8-.8 1.6-1.6 3.5-2.5 5.6-2.7v-9.3c-4.7.2-8.8 2-12.2 5.4-.9.7-1.6 1.6-2.2 2.5zm16.4 1.4c2.1.2 3.9 1.1 5.5 2.7.3.3.5.6.8.8l8-4.9c-.6-.9-1.4-1.8-2.2-2.6C60 31.8 56 30 51.3 29.7v9.4zm26.3 28.5L68 61.8l2.5-4.2 9.7 5.9-.5.9c-.2.4-.5.8-.7 1.2-.3.4-.5.8-.8 1.2l-.6.8zm-6.8-6.5l6.2 3.8c.1-.1.1-.2.2-.3.1-.1.1-.2.2-.3l-6.2-3.8-.4.6zm-48 6.5l-.5-.8c-.3-.4-.5-.8-.8-1.2-.3-.4-.5-.8-.7-1.3l-.5-.9 9.7-5.8 2.5 4.2-9.7 5.8zm.2-3.4c.1.1.1.2.2.3.1.1.1.2.2.3l6.2-3.7-.4-.7-6.2 3.8z"/>
    <path class="st0" d="M69.8 94.7c-1.1 0-2.3-.2-3.6-.7-3.2-1.2-5.3-3.2-6.2-6.1-1.4.3-2.7.6-4.1.8l-.3-2c1.6-.2 3.2-.5 4.8-.9l.2-.1c1.6-.4 3.2-1 4.7-1.6 3.7-1.5 7.1-3.7 10.3-6.5.7-.6 1.4-1.3 2.1-2 .5-.5 1-1.1 1.5-1.6 2.9-3.2 5.1-6.7 6.8-10.4.8-1.8 1.4-3.7 1.9-5.6.8-3.1 1.1-6.4 1.1-9.9v-2.3c-.1-1.9-.4-3.8-.7-5.7-.8-4-2.2-7.9-4.3-11.4-.8-1.4-1.8-2.8-2.8-4.1-1.1-1.4-2.3-2.8-3.6-4-.7-.7-1.5-1.4-2.2-2.1-3.3.4-6.2-.8-8.6-3.5-2.5-2.9-3.2-5.8-1.9-8.8l.1-.4.5-.1c3.1-.9 6 0 8.5 2.8 2.4 2.6 3.3 5.5 2.7 8.7.8.7 1.5 1.3 2.2 2.1.6.6 1.1 1.1 1.6 1.7 0-.3 0-.6.1-.9.5-3.8 2.4-6.2 5.4-7.2l.5-.2.4.3c2.7 1.8 3.9 4.6 3.5 8.4-.4 3.3-1.8 5.7-4.3 7.4 1.4 2.5 2.5 5.2 3.3 8 1.8-3.2 4.4-4.7 7.6-4.6h.5l.3.4c1.9 2.6 1.9 5.7.2 9.1-1.6 3-4 4.8-7 5.3v1.3c0 2.5-.2 5-.6 7.4 3.1-2 6.1-2.2 8.9-.7l.4.2.1.5c.4 3.2-.9 5.9-4 8.1-2.8 1.9-5.6 2.4-8.5 1.6-1.2 2.6-2.7 5.1-4.6 7.5h.2c3.8-.4 6.6.8 8.4 3.5l.3.4-.1.2c-1 3-3.5 4.9-7.2 5.4-3.4.5-6.2-.4-8.4-2.6-2.2 1.8-4.5 3.3-6.9 4.6.2.1.5.2.7.3 3.5 1.4 5.4 3.7 5.8 6.9l.1.5-.4.4c-1.6 1.5-3.4 2.2-5.4 2.2zm-7.9-7.4c.8 2.2 2.4 3.8 4.9 4.7 2.6.9 4.7.7 6.5-.7-.4-2.2-1.9-3.7-4.4-4.7-1.1-.4-2.2-.7-3.1-.7-1.3.6-2.6 1.1-3.9 1.4zm15.5-8.8c1.8 1.6 3.9 2.2 6.6 1.9 2.8-.4 4.5-1.6 5.4-3.6-1.3-1.7-3.4-2.4-6.1-2.1-1 .1-2 .4-2.8.8L79 77c-.5.5-1 1-1.6 1.5zm10.8-15.1c2.2.6 4.3.1 6.5-1.4 2.3-1.6 3.3-3.4 3.2-5.6-2-.9-4.1-.6-6.4.9-.7.4-1.2.9-1.7 1.5-.5 1.5-1 3-1.6 4.6zm2.1-23.5c.3 1.6.5 3.2.6 4.8 2.3-.5 4-1.9 5.3-4.2 1.3-2.5 1.4-4.6.3-6.5-2.2.1-4 1.3-5.3 3.8-.4.7-.7 1.4-.9 2.1zm-7.4-16.3c.8 1 1.6 2.1 2.3 3.2 1.9-1.3 3-3.2 3.3-5.8.3-2.8-.4-4.8-2.1-6.1-2 .9-3.2 2.6-3.6 5.4-.2 1.1-.1 2.3.1 3.3zM66.6 7.5c-.7 2.1-.1 4.1 1.7 6.2 1.9 2.1 4 3 6.5 2.8.4-2.4-.3-4.7-2.3-6.7-1.8-2-3.8-2.7-5.9-2.3z"/>
    <g>
        <path class="st0" d="M30.2 94.7c-2 0-3.8-.7-5.3-2.1l-.4-.4.1-.5c.3-3.2 2.3-5.5 5.8-6.9.2-.1.5-.2.7-.3-2.4-1.3-4.7-2.8-6.9-4.6-2.2 2.2-5.1 3-8.4 2.6-3.8-.5-6.2-2.4-7.2-5.4l-.2-.5.3-.4c1.8-2.7 4.6-3.9 8.4-3.5h.3c-1.8-2.4-3.3-4.9-4.6-7.5-2.9.9-5.7.3-8.5-1.6-3.1-2.2-4.4-4.9-4-8.1l.1-.5.4-.3c2.8-1.6 5.8-1.4 8.9.7-.5-2.3-.7-4.8-.7-7.3v-1.3c-3-.5-5.4-2.3-7-5.3-1.8-3.4-1.7-6.4.2-9.1l.2-.4h.5c3.2-.1 5.7 1.5 7.6 4.6.8-2.8 1.9-5.5 3.3-8-2.5-1.6-3.9-4.1-4.3-7.4-.4-3.8.8-6.6 3.5-8.4l.4-.3.5.2c3 1 4.9 3.5 5.4 7.2 0 .3.1.6.1.9.5-.6 1.1-1.1 1.6-1.7.7-.7 1.5-1.4 2.2-2.1-.6-3.2.3-6.1 2.7-8.7 2.6-2.8 5.5-3.7 8.5-2.8l.6.3.2.5c1.2 3 .6 6-1.9 8.8-2.4 2.7-5.3 3.9-8.6 3.5-.8.6-1.5 1.3-2.2 2.1-1.2 1.2-2.4 2.5-3.4 3.9l-.1.2c-1 1.3-2 2.7-2.8 4.1l-.2.1c-2 3.4-3.4 7.2-4.2 11.1-.4 1.8-.6 3.7-.7 5.7v2.3c0 3.4.4 6.8 1.2 9.9.5 1.9 1.1 3.8 1.9 5.6 1.6 3.7 3.9 7.2 6.8 10.4.5.5 1 1 1.5 1.6l2.1 2.1c3.2 2.7 6.6 4.9 10.3 6.4 1.5.6 3.1 1.2 4.7 1.6l.2.1c1.6.4 3.1.7 4.8.9l-.3 2c-1.4-.2-2.8-.4-4.1-.8-1 2.9-3.1 4.9-6.2 6.1-1.4.4-2.6.7-3.8.7zm-3.5-3.3c1.7 1.4 3.9 1.6 6.5.7 2.5-.9 4.1-2.5 4.9-4.7-1.3-.4-2.6-.8-3.8-1.3-1 0-2 .2-3.1.7-2.6.9-4.1 2.4-4.5 4.6zM10.6 76.9c.9 2 2.6 3.2 5.4 3.6 2.7.4 4.8-.3 6.6-1.9L21 77c-.5-.5-1-1-1.4-1.5-.8-.4-1.8-.6-2.8-.8-2.9-.3-4.9.4-6.2 2.2zM2.2 56.4c-.1 2.2.9 4 3.2 5.6 2.1 1.5 4.3 1.9 6.5 1.4-.6-1.5-1.1-3.1-1.6-4.6-.5-.5-1.1-1-1.7-1.5-2.4-1.6-4.5-1.8-6.4-.9zm1.6-15.9c1.3 2.4 3 3.8 5.3 4.2.1-1.6.3-3.3.6-4.8-.2-.7-.5-1.4-.9-2.1-1.4-2.4-3.1-3.7-5.3-3.8-1.1 1.9-1 4 .3 6.5zM11.5 21c.3 2.6 1.4 4.5 3.3 5.8.7-1.1 1.5-2.2 2.3-3.2.2-1 .3-2.2.1-3.4-.4-2.7-1.6-4.5-3.6-5.4-1.7 1.4-2.4 3.4-2.1 6.2zm13.7-4.4c2.5.2 4.6-.7 6.5-2.8 1.8-2.1 2.4-4.1 1.7-6.2-2.1-.4-4.1.3-6 2.3-1.9 2-2.6 4.2-2.2 6.7z"/>
    </g>
</symbol></svg>